# xmcd
#
# Track frame offsets:
#	150
#	13867
#	29391
#	43745
#	57862
#	72061
#	90106
#	108054
#	125794
#	148331
#	165506
#	183475
#	199413
#	212454
#	226693
#
# Disc length: 3236 seconds
#
# Revision: 1
# Processed by: cddbd v1.5.2PL0 Copyright (c) Steve Scherf et al.
# Submitted via: audiograbber 1.83.01
#
DISCID=c90ca20f
DTITLE=Terri Clark - The Best of Terri Clark
DYEAR=2008
DGENRE=Country
TTITLE0=When Boy Meets Girl
TTITLE1=I Just Wanna Be Mad
TTITLE2=Poor, Poor Pitiful Me
TTITLE3=Better Things To Do
TTITLE4=Little Gasoline
TTITLE5=Suddenly Single
TTITLE6=No Fear
TTITLE7=If I Were You
TTITLE8=Unsung Hero 
TTITLE9=Everytime I Cry
TTITLE10=World Needs a Drink
TTITLE11=Girls Lie Too 
TTITLE12=I Wanna Do It All
TTITLE13=Emotional Girl 
TTITLE14=You're Easy On the Eyes
EXTD=
EXTT0=
EXTT1=
EXTT2=
EXTT3=
EXTT4=
EXTT5=
EXTT6=
EXTT7=
EXTT8=
EXTT9=
EXTT10=
EXTT11=
EXTT12=
EXTT13=
EXTT14=
PLAYORDER=
